<svg xmlns="http://www.w3.org/2000/svg" viewBox="250 0 828 800" fill="none">
  <g transform="translate(0.000000,800.000000) scale(0.100000,-0.100000)" fill="#000000" stroke="none">
    <path d="M4720 4105 l0 -2995 1357 0 c746 0 1353 4 1347 8 -55 49 -105 82 -114 77 -6 -4 -9 -1 -8 7 2 7 -3 12 -9 11 -7 -2 -12 0 -10 5 1 4 -59 62 -133 128 -207 185 -381 376 -569 626 -40 54 -77 95 -82 92 -5 -3 -6 1 -3 9 3 8 -3 20 -13 28 -17 13 -17 13 -3 -6 15 -20 14 -20 -8 -1 -23 20 -30 32 -12 21 6 -3 10 -3 10 1 0 16 -163 253 -171 249 -4 -3 -11 0 -15 6 -4 8 -3 9 4 5 15 -9 15 -1 1 25 -5 11 -14 17 -19 14 -6 -4 -7 1 -3 11 5 13 3 15 -7 9 -8 -5 -11 -4 -7 2 4 6 -39 91 -95 189 -387 685 -548 1175 -548 1665 1 353 69 652 224 975 116 241 244 432 460 688 318 376 443 546 574 781 57 102 132 274 147 338 l7 27 -113 0 -114 0 -62 -115 c-79 -147 -179 -303 -343 -540 -399 -576 -545 -821 -668 -1125 -88 -218 -152 -458 -188 -705 -22 -150 -25 -533 -5 -675 61 -439 200 -844 447 -1293 127 -232 404 -644 424 -632 5 3 14 -5 20 -17 11 -22 10 -22 -4 -4 -9 11 -16 16 -16 12 0 -20 180 -241 334 -410 142 -155 71 -98 -171 138 -487 476 -826 918 -1064 1391 -142 283 -218 506 -270 800 -27 152 -37 499 -20 667 61 588 338 1168 835 1745 58 67 94 118 90 125 -4 6 -3 8 4 4 13 -8 318 325 510 558 l63 76 -995 0 -996 0 0 -2995z"/>
    <path d="M7260 7047 c42 -77 106 -241 129 -333 52 -205 50 -341 -10 -544 -27 -94 -30 -115 -26 -205 3 -75 11 -120 32 -180 51 -148 88 -209 308 -507 63 -86 118 -171 122 -188 10 -45 -17 -69 -148 -137 -60 -31 -119 -70 -133 -86 -42 -50 -28 -107 60 -251 20 -33 36 -65 36 -72 0 -32 -46 -65 -109 -77 l-64 -13 56 -32 c52 -29 87 -71 87 -103 0 -6 -31 -41 -69 -78 -82 -78 -91 -105 -72 -226 26 -167 26 -217 -2 -277 -45 -99 -131 -141 -287 -141 -231 0 -582 113 -757 244 l-51 38 -11 -47 c-42 -178 -54 -490 -26 -692 87 -640 394 -1214 958 -1787 55 -56 105 -99 110 -96 6 3 7 1 4 -5 -4 -5 26 -40 67 -76 l73 -66 487 0 486 0 0 2995 0 2995 -639 0 -639 0 28 -53z m707 -5923 c-3 -3 -12 -4 -19 -1 -8 3 -5 6 6 6 11 1 17 -2 13 -5z m521 -1 c-10 -2 -26 -2 -35 0 -10 3 -2 5 17 5 19 0 27 -2 18 -5z"/>
  </g>
</svg>
